<svg xmlns="http://www.w3.org/2000/svg" viewBox="0 0 256 256" role="img" aria-label="polars-random logo">
  <title>polars-random</title>
  <defs>
    <linearGradient id="bg" x1="0" y1="0" x2="1" y2="1">
      <stop offset="0%" stop-color="#0E7FC1"/>
      <stop offset="100%" stop-color="#172554"/>
    </linearGradient>
    <linearGradient id="snow" x1="0" y1="0" x2="0" y2="1">
      <stop offset="0%" stop-color="#FFFFFF" stop-opacity="0.95"/>
      <stop offset="100%" stop-color="#FFFFFF" stop-opacity="0.65"/>
    </linearGradient>
    <linearGradient id="bar" x1="0" y1="0" x2="0" y2="1">
      <stop offset="0%" stop-color="#FFFFFF" stop-opacity="0.20"/>
      <stop offset="100%" stop-color="#FFFFFF" stop-opacity="0.05"/>
    </linearGradient>
  </defs>

  <rect width="256" height="256" rx="48" fill="url(#bg)"/>

  <g>
    <rect x="40"  y="178" width="18" height="22"  rx="3" fill="url(#bar)"/>
    <rect x="62"  y="160" width="18" height="40"  rx="3" fill="url(#bar)"/>
    <rect x="84"  y="132" width="18" height="68"  rx="3" fill="url(#bar)"/>
    <rect x="106" y="108" width="18" height="92"  rx="3" fill="url(#bar)"/>
    <rect x="128" y="100" width="18" height="100" rx="3" fill="url(#bar)"/>
    <rect x="150" y="108" width="18" height="92"  rx="3" fill="url(#bar)"/>
    <rect x="172" y="132" width="18" height="68"  rx="3" fill="url(#bar)"/>
    <rect x="194" y="160" width="18" height="40"  rx="3" fill="url(#bar)"/>
  </g>

  <path d="M 24 200
           C 80 200, 92 92, 128 92
           C 164 92, 176 200, 232 200 Z"
        fill="url(#snow)"/>
  <path d="M 24 200
           C 80 200, 92 92, 128 92
           C 164 92, 176 200, 232 200"
        fill="none" stroke="#FFFFFF" stroke-width="4"
        stroke-linecap="round" stroke-linejoin="round"/>

  <line x1="24" y1="200" x2="232" y2="200"
        stroke="#FFFFFF" stroke-width="3" stroke-linecap="round" opacity="0.85"/>

  <g>
    <ellipse cx="113" cy="58" rx="9"  ry="11" fill="#FFFFFF" stroke="#172554" stroke-width="1.6"/>
    <ellipse cx="143" cy="58" rx="9"  ry="11" fill="#FFFFFF" stroke="#172554" stroke-width="1.6"/>
    <ellipse cx="113" cy="60" rx="4"  ry="5.5" fill="#0E7FC1" opacity="0.55"/>
    <ellipse cx="143" cy="60" rx="4"  ry="5.5" fill="#0E7FC1" opacity="0.55"/>

    <circle cx="128" cy="80" r="24" fill="#FFFFFF" stroke="#172554" stroke-width="1.6"/>

    <ellipse cx="128" cy="90" rx="11" ry="8" fill="#F1F5FB"/>

    <circle cx="121" cy="76" r="2.6" fill="#172554"/>
    <circle cx="135" cy="76" r="2.6" fill="#172554"/>
    <circle cx="121.7" cy="75.3" r="0.9" fill="#FFFFFF"/>
    <circle cx="135.7" cy="75.3" r="0.9" fill="#FFFFFF"/>

    <ellipse cx="128" cy="86" rx="2.8" ry="2.1" fill="#172554"/>
    <path d="M 128 89 Q 125 92.5, 122.5 91" fill="none" stroke="#172554" stroke-width="1.3" stroke-linecap="round"/>
    <path d="M 128 89 Q 131 92.5, 133.5 91" fill="none" stroke="#172554" stroke-width="1.3" stroke-linecap="round"/>
  </g>

  <g fill="#F59E0B">
    <circle cx="46"  cy="192" r="4.5"/>
    <circle cx="68"  cy="174" r="4.5"/>
    <circle cx="86"  cy="146" r="4.5"/>
    <circle cx="170" cy="146" r="4.5"/>
    <circle cx="188" cy="174" r="4.5"/>
    <circle cx="210" cy="192" r="4.5"/>
  </g>

  <g fill="#FBBF24" opacity="0.9">
    <circle cx="42"  cy="44" r="2"/>
    <circle cx="74"  cy="32" r="1.6"/>
    <circle cx="182" cy="32" r="1.6"/>
    <circle cx="214" cy="44" r="2"/>
    <circle cx="32"  cy="68" r="1.5"/>
    <circle cx="224" cy="68" r="1.5"/>
  </g>
</svg>
