<svg xmlns="http://www.w3.org/2000/svg" viewBox="0 0 256 256" role="img" aria-label="polars-random logo">
  <title>polars-random</title>
  <defs>
    <linearGradient id="bg" x1="0" y1="0" x2="1" y2="1">
      <stop offset="0%" stop-color="#0E7FC1"/>
      <stop offset="100%" stop-color="#172554"/>
    </linearGradient>
    <linearGradient id="curveFill" x1="0" y1="0" x2="0" y2="1">
      <stop offset="0%" stop-color="#FFFFFF" stop-opacity="0.55"/>
      <stop offset="100%" stop-color="#FFFFFF" stop-opacity="0.05"/>
    </linearGradient>
    <linearGradient id="bar" x1="0" y1="0" x2="0" y2="1">
      <stop offset="0%" stop-color="#FFFFFF" stop-opacity="0.28"/>
      <stop offset="100%" stop-color="#FFFFFF" stop-opacity="0.08"/>
    </linearGradient>
  </defs>

  <rect width="256" height="256" rx="48" fill="url(#bg)"/>

  <g transform="translate(0,4)">
    <rect x="40"  y="178" width="18" height="22" rx="3" fill="url(#bar)"/>
    <rect x="62"  y="160" width="18" height="40" rx="3" fill="url(#bar)"/>
    <rect x="84"  y="130" width="18" height="70" rx="3" fill="url(#bar)"/>
    <rect x="106" y="96"  width="18" height="104" rx="3" fill="url(#bar)"/>
    <rect x="128" y="86"  width="18" height="114" rx="3" fill="url(#bar)"/>
    <rect x="150" y="108" width="18" height="92" rx="3" fill="url(#bar)"/>
    <rect x="172" y="142" width="18" height="58" rx="3" fill="url(#bar)"/>
    <rect x="194" y="170" width="18" height="30" rx="3" fill="url(#bar)"/>

    <path d="M 32 200
             C 88 200, 96 70, 128 70
             C 160 70, 168 200, 224 200 Z"
          fill="url(#curveFill)"/>
    <path d="M 32 200
             C 88 200, 96 70, 128 70
             C 160 70, 168 200, 224 200"
          fill="none" stroke="#FFFFFF" stroke-width="4" stroke-linecap="round" stroke-linejoin="round"/>

    <line x1="32" y1="200" x2="224" y2="200"
          stroke="#FFFFFF" stroke-width="3" stroke-linecap="round" opacity="0.85"/>

    <g fill="#F59E0B">
      <circle cx="58"  cy="186" r="4.5"/>
      <circle cx="80"  cy="156" r="4.5"/>
      <circle cx="100" cy="120" r="4.5"/>
      <circle cx="120" cy="84"  r="4.5"/>
      <circle cx="140" cy="92"  r="4.5"/>
      <circle cx="160" cy="118" r="4.5"/>
      <circle cx="182" cy="156" r="4.5"/>
      <circle cx="204" cy="184" r="4.5"/>
    </g>

    <g fill="#FBBF24" opacity="0.9">
      <circle cx="70"  cy="40" r="2.5"/>
      <circle cx="112" cy="32" r="2"/>
      <circle cx="148" cy="46" r="2.5"/>
      <circle cx="190" cy="34" r="2"/>
      <circle cx="50"  cy="56" r="1.8"/>
      <circle cx="216" cy="58" r="1.8"/>
    </g>
  </g>
</svg>
